<svg
   width="1536"
   height="1536"
   xmlns="http://www.w3.org/2000/svg">
  <path
     d="M 1024,768 C 1024,627 909,512 768,512 627,512 512,627 512,768 c 0,141 115,256 256,256 141,0 256,-115 256,-256 z m 138,0 c 0,218 -176,394 -394,394 -218,0 -394,-176 -394,-394 0,-218 176,-394 394,-394 218,0 394,176 394,394 z m 108,-410 c 0,51 -41,92 -92,92 -51,0 -92,-41 -92,-92 0,-51 41,-92 92,-92 51,0 92,41 92,92 z M 768,138 c -112,0 -352,-9 -453,31 -35,14 -61,31 -88,58 -27,27 -44,53 -58,88 -40,101 -31,341 -31,453 0,112 -9,352 31,453 14,35 31,61 58,88 27,27 53,44 88,58 101,40 341,31 453,31 112,0 352,9 453,-31 35,-14 61,-31 88,-58 27,-27 44,-53 58,-88 40,-101 31,-341 31,-453 0,-112 9,-352 -31,-453 -14,-35 -31,-61 -58,-88 -27,-27 -53,-44 -88,-58 -101,-40 -341,-31 -453,-31 z m 768,630 c 0,106 1,211 -5,317 -6,123 -34,232 -124,322 -90,90 -199,118 -322,124 -106,6 -211,5 -317,5 -106,0 -211,1 -317,-5 C 328,1525 219,1497 129,1407 39,1317 11,1208 5,1085 -1,979 0,874 0,768 0,662 -1,557 5,451 11,328 39,219 129,129 219,39 328,11 451,5 557,-1 662,0 768,0 c 106,0 211,-1 317,5 123,6 232,34 322,124 90,90 118,199 124,322 6,106 5,211 5,317 z" />
</svg>
